<?xml version="1.0" encoding="UTF-8"?>
<svg id="Layer_1" xmlns="http://www.w3.org/2000/svg" version="1.1" viewBox="0 0 122.9 111.8">
  <!-- Generator: Adobe Illustrator 29.3.1, SVG Export Plug-In . SVG Version: 2.1.0 Build 151)  -->
  <path d="M4.1,8.2C1.8,8.2,0,6.3,0,4.1S1.8,0,4.1,0h6C13.6,0,17,.8,20,2.6c5.4,3.5,6.4,8.4,7.8,13.9h91c2.2,0,4.1,1.8,4.1,4.1s0,.8-.2,1.2l-10.6,42.8c-.4,1.9-2.1,3.2-4,3.1H41.5c1.5,5.4,2.9,8.3,4.9,9.7,2.4,1.6,6.6,1.7,13.5,1.6h47.1c2.2,0,4.1,1.8,4.1,4.1s-1.8,4.1-4.1,4.1h-47.1c-8.6,0-13.9,0-18.2-2.9s-6.7-7.9-9-17L18.9,14.5s0,0-.1-.2c-.4-1.9-1.5-3.6-3.1-4.7-1.7-1-3.7-1.4-5.7-1.3h-5.9,0ZM84.4,33.2c.3-1.6,1.9-2.6,3.4-2.2,1.1.2,2,1.1,2.2,2.2v15.7c-.3,1.6-1.9,2.6-3.4,2.2-1.1-.2-2-1.1-2.2-2.2v-15.7h0ZM67.4,33.2c.3-1.6,1.8-2.6,3.4-2.3,1.1.2,2,1.1,2.3,2.3v15.7c-.3,1.6-1.8,2.6-3.4,2.3-1.1-.2-2-1.1-2.3-2.3v-15.7h0ZM50.5,33.2c.3-1.6,1.9-2.6,3.4-2.2,1.1.2,2,1.1,2.2,2.2v15.7c-.3,1.6-1.9,2.6-3.4,2.2-1.1-.2-2-1.1-2.2-2.2v-15.7h0ZM92.2,24.6H30.1l9.3,34.9h65.7l8.6-34.9h-21.5ZM94.9,91.8c5.5,0,10,4.5,10,10s-4.5,10-10,10-10-4.5-10-10,4.5-10,10-10h0ZM51.1,91.8c5.5,0,10,4.5,10,10s-4.5,10-10,10-10-4.5-10-10,4.5-10,10-10h0Z"/>
</svg>