<?xml version="1.0" encoding="UTF-8"?>
<svg xmlns="http://www.w3.org/2000/svg" version="1.1" viewBox="0 0 256 256">
  <defs>
    <style>
      .cls-1 {
        fill: #c20e1a;
      }
    </style>
  </defs>
  <!-- Generator: Adobe Illustrator 28.7.5, SVG Export Plug-In . SVG Version: 1.2.0 Build 176)  -->
  <g>
    <g id="Lager_1">
      <path class="cls-1" d="M127.3,61.7c12.2.4,13.3-20.9,35.8-31.8,17.4-8.4,35.3-4.7,41.6-3.1,4.8,1.3,18.4,5.1,29.7,17.7,10.4,11.6,12.9,24.1,14.1,30,1,5.3,3.2,17.1-1.2,30.3-3.9,11.8-11.3,19.2-14.7,22.6-35.9,35.6-103.6,102.1-103.6,102.1,0,0-102.3-103.4-112.5-111-.6-.4-2.9-2.1-4.6-5.2-1.7-3.1-1.8-6.1-1.8-7.3-.5-11.8-2.5-12.8-2.1-23.8.3-10.1.6-20.2,5.5-29.7,11.5-22.2,40.3-26.2,44.9-26.9,6.3-.9,21.7-3.1,36.7,4.9,20.7,11,20.7,30.8,32.4,31.2Z"/>
      <path d="M127.9,238.4L20.5,131C8.2,118.7,1.4,102.3,1.4,84.9s6.8-33.8,19.1-46.1c12.3-12.3,28.7-19.1,46.1-19.1s33.8,6.8,46.1,19.1l15.1,15.1,15.1-15.1c12.3-12.3,28.7-19.1,46.1-19.1s33.8,6.8,46.1,19.1h0c12.3,12.3,19.1,28.7,19.1,46.1s-6.8,33.8-19.1,46.1l-107.3,107.3ZM66.7,30.9c-14.4,0-28,5.6-38.2,15.8-10.2,10.2-15.8,23.8-15.8,38.2s5.6,28,15.8,38.2l99.4,99.4,99.4-99.4c10.2-10.2,15.8-23.8,15.8-38.2s-5.6-28-15.8-38.2h0c-10.2-10.2-23.8-15.8-38.2-15.8s-28,5.6-38.2,15.8l-23,23-23-23c-10.2-10.2-23.8-15.8-38.2-15.8Z"/>
    </g>
  </g>
</svg>